<svg xmlns="http://www.w3.org/2000/svg" version="1.1" xmlns:xlink="http://www.w3.org/1999/xlink" xmlns:svgjs="http://svgjs.dev/svgjs" width="2000" height="1999" viewBox="0 0 2000 1999"><g transform="matrix(1,0,0,1,-0.431486880466764,-0.4312711370263287)"><svg viewBox="0 0 343 343" data-background-color="#000000" preserveAspectRatio="xMidYMid meet" height="1999" width="2000" xmlns="http://www.w3.org/2000/svg" xmlns:xlink="http://www.w3.org/1999/xlink"><g id="tight-bounds" transform="matrix(1,0,0,1,0.0740000000000407,0.07400000000001228)"><svg viewBox="0 0 342.85155851775386 342.85155851775386" height="342.85155851775386" width="342.85155851775386"><rect width="342.852" height="342.852" fill="url(#4861864b-8c4d-4fb5-9449-07a8b3a8e0f8)" mask="url(#e4fa9a59-f573-439d-8444-22cf71bb36f2)" data-fill-palette-color="tertiary"></rect><g><svg></svg></g><g><svg viewBox="0 0 342.85155851775386 342.85155851775386" height="342.85155851775386" width="342.85155851775386"><g><path d="M0 171.426c0-94.676 76.75-171.426 171.426-171.426 94.676 0 171.426 76.75 171.426 171.426 0 94.676-76.75 171.426-171.426 171.426-94.676 0-171.426-76.75-171.426-171.426zM171.426 330.328c87.759 0 158.902-71.143 158.902-158.902 0-87.759-71.143-158.902-158.902-158.902-87.759 0-158.902 71.143-158.902 158.902 0 87.759 71.143 158.902 158.902 158.902z" data-fill-palette-color="tertiary" fill="url(#4861864b-8c4d-4fb5-9449-07a8b3a8e0f8)" stroke="transparent"></path><ellipse rx="164.56874808852186" ry="164.56874808852186" cx="171.42577925887693" cy="171.42577925887693" fill="url(#4861864b-8c4d-4fb5-9449-07a8b3a8e0f8)" stroke="transparent" stroke-width="0" fill-opacity="1" data-fill-palette-color="tertiary"></ellipse></g><g transform="matrix(1,0,0,1,64.84655864529837,101.9891140012896)"><svg viewBox="0 0 213.1584412271571 138.87333051517467" height="138.87333051517467" width="213.1584412271571"><g><svg viewBox="0 0 213.1584412271571 138.87333051517467" height="138.87333051517467" width="213.1584412271571"><g><svg viewBox="0 0 213.1584412271571 138.87333051517467" height="138.87333051517467" width="213.1584412271571"><g><svg viewBox="0 0 213.1584412271571 138.87333051517467" height="138.87333051517467" width="213.1584412271571"><g id="textblocktransform"><svg viewBox="0 0 213.1584412271571 138.87333051517467" height="138.87333051517467" width="213.1584412271571" id="textblock"><g><svg viewBox="0 0 213.1584412271571 138.87333051517467" height="138.87333051517467" width="213.1584412271571"><g transform="matrix(1,0,0,1,0,0)"><svg width="213.1584412271571" viewBox="4 -39.7 61.55 40.1" height="138.87333051517467" data-palette-color="#000000"><path d="M13.3-22.85L22.95-22.85Q24.25-22.85 25.65-22.3 27.05-21.75 28.35-20.85L28.35-20.85 28.3-20.85Q29.6-19.95 30.3-18.4 31-16.85 31-14.85L31-14.85 31-8Q31-3.95 28.3-1.95L28.3-1.95Q27-1 25.63-0.48 24.25 0.05 22.95 0.05L22.95 0.05 12.05 0.05Q10.75 0.05 9.38-0.48 8-1 6.7-1.95L6.7-1.95Q4-3.95 4-8L4-8 4-11.3Q4-13.65 6.95-13.65L6.95-13.65Q9.95-13.65 9.95-11.3L9.95-11.3 9.95-8.4Q9.95-7.1 10.7-6.05 11.45-5 13.3-5L13.3-5 21.7-5Q23.55-5 24.3-6.05 25.05-7.1 25.05-8.4L25.05-8.4 25.05-14.45Q25.05-15.7 24.3-16.78 23.55-17.85 21.7-17.85L21.7-17.85 12.05-17.85Q9.45-17.85 6.7-19.75L6.7-19.75Q4-21.85 4-25.8L4-25.8 4-31.75Q4-33.75 4.7-35.27 5.4-36.8 6.7-37.75L6.7-37.75 6.65-37.75Q7.95-38.6 9.35-39.15 10.75-39.7 12.05-39.7L12.05-39.7 22.95-39.7Q24.25-39.7 25.65-39.15 27.05-38.6 28.35-37.75L28.35-37.75 28.3-37.75Q29.6-36.8 30.3-35.27 31-33.75 31-31.75L31-31.75 31-28.8Q31-26.45 28-26.45L28-26.45Q25.05-26.45 25.05-28.8L25.05-28.8 25.05-31.3Q25.05-32.55 24.3-33.6 23.55-34.65 21.7-34.65L21.7-34.65 13.3-34.65Q11.45-34.65 10.7-33.6 9.95-32.55 9.95-31.3L9.95-31.3 9.95-26.2Q9.95-24.9 10.7-23.88 11.45-22.85 13.3-22.85L13.3-22.85ZM59.6-8.4L59.6-14.75Q59.6-15.9 58.75-16.98 57.9-18.05 55.75-18.2L55.75-18.2Q54.35-16.5 52.35-16.5L52.35-16.5Q50.65-16.5 49.45-17.7 48.25-18.9 48.25-20.65L48.25-20.65Q48.25-22.4 49.45-23.6 50.65-24.8 52.35-24.8L52.35-24.8Q53.25-24.8 54.12-24.3 55-23.8 55.7-23.1L55.7-23.1Q56.8-23.15 57.4-23.45 58-23.75 58.27-24.18 58.55-24.6 58.6-25.15 58.65-25.7 58.65-26.25L58.65-26.25 58.65-31.3Q58.65-32.55 57.87-33.6 57.1-34.65 55.25-34.65L55.25-34.65 44.8-34.65 44.75-1.65Q44.75-0.65 43.82-0.13 42.9 0.4 41.8 0.4L41.8 0.4Q38.85 0.4 38.85-2L38.85-2 38.85-36.7Q38.85-38.5 39.77-39.1 40.7-39.7 42-39.7L42-39.7 56.5-39.7Q57.8-39.7 59.27-39.2 60.75-38.7 62.05-37.85L62.05-37.85 62-37.85Q63.3-36.9 63.92-35.35 64.55-33.8 64.55-31.75L64.55-31.75 64.55-26.1Q64.55-24.1 63.7-22.83 62.85-21.55 61.9-20.8L61.9-20.8Q62.55-20.4 63.15-19.98 63.75-19.55 64.15-19.05L64.15-19.05Q64.8-18.35 65.17-17.4 65.55-16.45 65.55-15.15L65.55-15.15 65.55-8Q65.55-3.9 62.35-1.95L62.35-1.95Q60.75-0.95 59.32-0.45 57.9 0.05 56.5 0.05L56.5 0.05 49.1 0.05Q48.25 0.05 47.77-0.65 47.3-1.35 47.3-2.5L47.3-2.5Q47.3-5 49.4-5L49.4-5 56.25-5Q58.1-5 58.85-6.05 59.6-7.1 59.6-8.4L59.6-8.4Z" opacity="1" transform="matrix(1,0,0,1,0,0)" fill="#000000" class="wordmark-text-0" data-fill-palette-color="quaternary" id="text-0"></path></svg></g></svg></g></svg></g></svg></g><g></g></svg></g></svg></g></svg></g></svg></g><defs></defs><mask id="e4fa9a59-f573-439d-8444-22cf71bb36f2"><g id="SvgjsG2554"><svg viewBox="0 0 342.85155851775386 342.85155851775386" height="342.85155851775386" width="342.85155851775386"><g><svg></svg></g><g><svg viewBox="0 0 342.85155851775386 342.85155851775386" height="342.85155851775386" width="342.85155851775386"><g><path d="M0 171.426c0-94.676 76.75-171.426 171.426-171.426 94.676 0 171.426 76.75 171.426 171.426 0 94.676-76.75 171.426-171.426 171.426-94.676 0-171.426-76.75-171.426-171.426zM171.426 330.328c87.759 0 158.902-71.143 158.902-158.902 0-87.759-71.143-158.902-158.902-158.902-87.759 0-158.902 71.143-158.902 158.902 0 87.759 71.143 158.902 158.902 158.902z" fill="white" stroke="transparent"></path><ellipse rx="164.56874808852186" ry="164.56874808852186" cx="171.42577925887693" cy="171.42577925887693" fill="white" stroke="transparent" stroke-width="0" fill-opacity="1"></ellipse></g><g transform="matrix(1,0,0,1,64.84655864529837,101.9891140012896)"><svg viewBox="0 0 213.1584412271571 138.87333051517467" height="138.87333051517467" width="213.1584412271571"><g><svg viewBox="0 0 213.1584412271571 138.87333051517467" height="138.87333051517467" width="213.1584412271571"><g><svg viewBox="0 0 213.1584412271571 138.87333051517467" height="138.87333051517467" width="213.1584412271571"><g><svg viewBox="0 0 213.1584412271571 138.87333051517467" height="138.87333051517467" width="213.1584412271571"><g id="SvgjsG2553"><svg viewBox="0 0 213.1584412271571 138.87333051517467" height="138.87333051517467" width="213.1584412271571" id="SvgjsSvg2552"><g><svg viewBox="0 0 213.1584412271571 138.87333051517467" height="138.87333051517467" width="213.1584412271571"><g transform="matrix(1,0,0,1,0,0)"><svg width="213.1584412271571" viewBox="4 -39.7 61.55 40.1" height="138.87333051517467" data-palette-color="#000000"><path d="M13.3-22.85L22.95-22.85Q24.25-22.85 25.65-22.3 27.05-21.75 28.35-20.85L28.35-20.85 28.3-20.85Q29.6-19.95 30.3-18.4 31-16.85 31-14.85L31-14.85 31-8Q31-3.95 28.3-1.95L28.3-1.95Q27-1 25.63-0.48 24.25 0.05 22.95 0.05L22.95 0.05 12.05 0.05Q10.75 0.05 9.38-0.48 8-1 6.7-1.95L6.7-1.95Q4-3.95 4-8L4-8 4-11.3Q4-13.65 6.95-13.65L6.95-13.65Q9.95-13.65 9.95-11.3L9.95-11.3 9.95-8.4Q9.95-7.1 10.7-6.05 11.45-5 13.3-5L13.3-5 21.7-5Q23.55-5 24.3-6.05 25.05-7.1 25.05-8.4L25.05-8.4 25.05-14.45Q25.05-15.7 24.3-16.78 23.55-17.85 21.7-17.85L21.7-17.85 12.05-17.85Q9.45-17.85 6.7-19.75L6.7-19.75Q4-21.85 4-25.8L4-25.8 4-31.75Q4-33.75 4.7-35.27 5.4-36.8 6.7-37.75L6.7-37.75 6.65-37.75Q7.95-38.6 9.35-39.15 10.75-39.7 12.05-39.7L12.05-39.7 22.95-39.7Q24.25-39.7 25.65-39.15 27.05-38.6 28.35-37.75L28.35-37.75 28.3-37.75Q29.6-36.8 30.3-35.27 31-33.75 31-31.75L31-31.75 31-28.8Q31-26.45 28-26.45L28-26.45Q25.05-26.45 25.05-28.8L25.05-28.8 25.05-31.3Q25.05-32.55 24.3-33.6 23.55-34.65 21.7-34.65L21.7-34.65 13.3-34.65Q11.45-34.65 10.7-33.6 9.95-32.55 9.95-31.3L9.95-31.3 9.95-26.2Q9.95-24.9 10.7-23.88 11.45-22.85 13.3-22.85L13.3-22.85ZM59.6-8.4L59.6-14.75Q59.6-15.9 58.75-16.98 57.9-18.05 55.75-18.2L55.75-18.2Q54.35-16.5 52.35-16.5L52.35-16.5Q50.65-16.5 49.45-17.7 48.25-18.9 48.25-20.65L48.25-20.65Q48.25-22.4 49.45-23.6 50.65-24.8 52.35-24.8L52.35-24.8Q53.25-24.8 54.12-24.3 55-23.8 55.7-23.1L55.7-23.1Q56.8-23.15 57.4-23.45 58-23.75 58.27-24.18 58.55-24.6 58.6-25.15 58.65-25.7 58.65-26.25L58.65-26.25 58.65-31.3Q58.65-32.55 57.87-33.6 57.1-34.65 55.25-34.65L55.25-34.65 44.8-34.65 44.75-1.65Q44.75-0.65 43.82-0.13 42.9 0.4 41.8 0.4L41.8 0.4Q38.85 0.4 38.85-2L38.85-2 38.85-36.7Q38.85-38.5 39.77-39.1 40.7-39.7 42-39.7L42-39.7 56.5-39.7Q57.8-39.7 59.27-39.2 60.75-38.7 62.05-37.85L62.05-37.85 62-37.85Q63.3-36.9 63.92-35.35 64.55-33.8 64.55-31.75L64.55-31.75 64.55-26.1Q64.55-24.1 63.7-22.83 62.85-21.55 61.9-20.8L61.9-20.8Q62.55-20.4 63.15-19.98 63.75-19.55 64.15-19.05L64.15-19.05Q64.8-18.35 65.17-17.4 65.55-16.45 65.55-15.15L65.55-15.15 65.55-8Q65.55-3.9 62.35-1.95L62.35-1.95Q60.75-0.95 59.32-0.45 57.9 0.05 56.5 0.05L56.5 0.05 49.1 0.05Q48.25 0.05 47.77-0.65 47.3-1.35 47.3-2.5L47.3-2.5Q47.3-5 49.4-5L49.4-5 56.25-5Q58.1-5 58.85-6.05 59.6-7.1 59.6-8.4L59.6-8.4Z" opacity="1" transform="matrix(1,0,0,1,0,0)" fill="black" class="wordmark-text-0" id="SvgjsPath2551"></path></svg></g></svg></g></svg></g></svg></g><g></g></svg></g></svg></g></svg></g></svg></g><defs><mask></mask></defs></svg><rect width="342.85155851775386" height="342.85155851775386" fill="black" stroke="none" visibility="hidden"></rect></g></mask><linearGradient x1="0.054" x2="0.941" y1="0.5" y2="0.5" id="4861864b-8c4d-4fb5-9449-07a8b3a8e0f8"><stop stop-color="#9c7945" offset="0"></stop><stop stop-color="#faf3aa" offset="0.498"></stop><stop stop-color="#9c7945" offset="1"></stop></linearGradient></svg><rect width="342.85155851775386" height="342.85155851775386" fill="none" stroke="none" visibility="hidden"></rect></g></svg></g></svg>